<svg xmlns="http://www.w3.org/2000/svg" xmlns:xlink="http://www.w3.org/1999/xlink" width="420" zoomAndPan="magnify" viewBox="0 0 315 187.499995" height="250" preserveAspectRatio="xMidYMid meet" version="1.0">
  <defs>
    <g />
    <clipPath id="d20010809a">
      <path d="M 48.578125 18 L 89 18 L 89 89 L 48.578125 89 Z M 48.578125 18 " clip-rule="nonzero" />
    </clipPath>
    <clipPath id="b523af667e">
      <path d="M 83.246094 44.089844 L 102.484375 44.089844 L 102.484375 54.238281 L 83.246094 54.238281 Z M 83.246094 44.089844 " clip-rule="nonzero" />
    </clipPath>
    <clipPath id="cc2bcef4cb">
      <path d="M 2 9 L 46 9 L 46 152 L 2 152 Z M 2 9 " clip-rule="nonzero" />
    </clipPath>
    <clipPath id="7dc6e10877">
      <path d="M -38.546875 40.335938 L 45.59375 9.066406 L 86.765625 119.847656 L 2.628906 151.117188 Z M -38.546875 40.335938 " clip-rule="nonzero" />
    </clipPath>
    <clipPath id="0d07ea857e">
      <path d="M -38.546875 40.335938 L 45.59375 9.066406 L 86.765625 119.847656 L 2.628906 151.117188 Z M -38.546875 40.335938 " clip-rule="nonzero" />
    </clipPath>
  </defs>
  <g clip-path="url(#d20010809a)">
    <path fill="#d500f9" d="M 53.667969 89 C 73.011719 89 88.8125 73.277344 88.8125 53.859375 C 88.8125 34.597656 73.011719 18.871094 53.667969 18.871094 C 34.328125 18.871094 18.605469 34.597656 18.605469 53.859375 C 18.605469 73.277344 34.25 89 53.667969 89 Z M 53.667969 78.941406 C 39.832031 78.941406 28.667969 67.695312 28.667969 53.859375 C 28.667969 40.101562 39.832031 29.019531 53.667969 29.019531 C 67.347656 29.019531 78.59375 40.179688 78.59375 53.859375 C 78.59375 67.695312 67.425781 78.941406 53.667969 78.941406 Z M 53.667969 78.941406 " fill-opacity="1" fill-rule="nonzero" />
  </g>
  <g clip-path="url(#b523af667e)">
    <path fill="#d500f9" d="M 86.050781 54.238281 C 85.6875 54.238281 85.324219 54.160156 84.960938 54.007812 C 83.535156 53.402344 82.867188 51.761719 83.472656 50.332031 C 85.066406 46.535156 88.753906 44.089844 92.863281 44.089844 C 96.976562 44.089844 100.660156 46.535156 102.269531 50.332031 C 102.875 51.761719 102.210938 53.417969 100.785156 54.007812 C 99.355469 54.617188 97.703125 53.949219 97.113281 52.519531 C 96.382812 50.820312 94.714844 49.710938 92.863281 49.710938 C 91.011719 49.710938 89.359375 50.820312 88.628906 52.519531 C 88.191406 53.585938 87.144531 54.238281 86.050781 54.238281 Z M 86.050781 54.238281 " fill-opacity="1" fill-rule="nonzero" />
  </g>
  <g clip-path="url(#cc2bcef4cb)">
    <g clip-path="url(#7dc6e10877)">
      <g clip-path="url(#0d07ea857e)">
        <path fill="#d500f9" d="M 45.59375 9.066406 L 2.605469 81.835938 L 17.789062 76.546875 L 3.734375 108.914062 L 17.46875 104.527344 L 2.625 151.117188 L 45.929688 78.234375 L 30.195312 83.007812 L 45.820312 50.058594 L 31.65625 54.25 Z M 45.59375 9.066406 " fill-opacity="1" fill-rule="nonzero" />
      </g>
    </g>
  </g>
  <g fill="#d500f9" fill-opacity="1">
    <g transform="translate(94.400958, 89.196438)">
      <g>
        <path d="M 38.148438 -0.234375 C 57.460938 -0.234375 73.238281 -15.933594 73.238281 -35.324219 C 73.238281 -54.554688 57.460938 -70.253906 38.148438 -70.253906 C 18.839844 -70.253906 3.140625 -54.554688 3.140625 -35.324219 C 3.140625 -15.933594 18.761719 -0.234375 38.148438 -0.234375 Z M 38.148438 -10.28125 C 24.335938 -10.28125 13.1875 -21.507812 13.1875 -35.324219 C 13.1875 -49.0625 24.335938 -60.128906 38.148438 -60.128906 C 51.808594 -60.128906 63.035156 -48.980469 63.035156 -35.324219 C 63.035156 -21.507812 51.886719 -10.28125 38.148438 -10.28125 Z M 38.148438 -10.28125 " />
      </g>
    </g>
  </g>
  <g fill="#d500f9" fill-opacity="1">
    <g transform="translate(169.535231, 107.270826)">
      <g>
        <path d="M 29.332031 -76.773438 L 20.953125 -76.773438 L 19.605469 -13.167969 C 19.40625 -12.769531 19.304688 -12.371094 19.304688 -11.972656 C 19.304688 -10.175781 21.699219 -7.234375 26.488281 -3.144531 L 14.21875 -7.632812 C 9.429688 -9.429688 6.882812 -11.574219 6.585938 -14.066406 L 7.332031 -77.371094 L -5.238281 -77.371094 C 3.34375 -82.160156 11.921875 -90.441406 20.503906 -102.214844 L 20.203125 -83.207031 L 27.984375 -83.207031 Z M 29.332031 -76.773438 " />
      </g>
    </g>
  </g>
  <g fill="#d500f9" fill-opacity="1">
    <g transform="translate(199.764129, 107.270826)">
      <g>
        <path d="M 29.332031 -76.773438 L 20.953125 -76.773438 L 19.605469 -13.167969 C 19.40625 -12.769531 19.304688 -12.371094 19.304688 -11.972656 C 19.304688 -10.175781 21.699219 -7.234375 26.488281 -3.144531 L 14.21875 -7.632812 C 9.429688 -9.429688 6.882812 -11.574219 6.585938 -14.066406 L 7.332031 -77.371094 L -5.238281 -77.371094 C 3.34375 -82.160156 11.921875 -90.441406 20.503906 -102.214844 L 20.203125 -83.207031 L 27.984375 -83.207031 Z M 29.332031 -76.773438 " />
      </g>
    </g>
  </g>
  <g fill="#d500f9" fill-opacity="1">
    <g transform="translate(229.993027, 107.270826)">
      <g>
        <path d="M 39.507812 -56.269531 L 35.769531 -48.488281 C 31.875 -50.78125 27.4375 -51.929688 22.449219 -51.929688 C 19.457031 -51.929688 17.609375 -51.53125 16.910156 -50.734375 L 17.957031 -26.191406 C 18.757812 -24.492188 20.453125 -22.945312 23.046875 -21.550781 C 25.042969 -24.144531 26.390625 -27.386719 27.085938 -31.277344 C 27.1875 -31.675781 27.4375 -34.222656 27.835938 -38.910156 L 34.421875 -30.53125 L 25.292969 -17.507812 L 17.660156 -17.359375 L 2.542969 -30.53125 C 1.746094 -34.320312 1.347656 -38.660156 1.347656 -43.550781 C 1.347656 -50.535156 2.046875 -57.867188 3.441406 -65.550781 L 20.203125 -78.71875 C 21.402344 -79.117188 22.398438 -79.066406 23.195312 -78.570312 L 35.320312 -70.636719 Z M 28.734375 -55.371094 L 21.101562 -72.582031 C 20.402344 -73.480469 19.953125 -73.929688 19.753906 -73.929688 C 19.355469 -73.929688 18.957031 -73.582031 18.558594 -72.882812 L 16.761719 -55.820312 C 22.347656 -56.121094 26.339844 -55.972656 28.734375 -55.371094 Z M 28.734375 -55.371094 " />
      </g>
    </g>
  </g>
  <g fill="#d500f9" fill-opacity="1">
    <g transform="translate(270.996564, 107.270826)">
      <g>
        <path d="M 0.148438 -85.753906 C 5.238281 -89.246094 11.023438 -93.585938 17.507812 -98.773438 L 17.507812 -85.304688 C 22.699219 -89.792969 26.089844 -92.039062 27.6875 -92.039062 C 28.183594 -92.039062 28.535156 -91.886719 28.734375 -91.589844 L 35.769531 -79.316406 C 36.566406 -78.417969 36.964844 -77.523438 36.964844 -76.625 C 36.964844 -75.625 36.464844 -74.976562 35.46875 -74.679688 L 21.699219 -66.597656 L 21.699219 -67.195312 C 23.796875 -69.191406 24.992188 -71.035156 25.292969 -72.734375 C 24.894531 -74.230469 24.195312 -76.074219 23.195312 -78.269531 C 21.898438 -81.0625 20.902344 -82.359375 20.203125 -82.160156 C 19.605469 -82.0625 18.855469 -81.414062 17.957031 -80.214844 C 17.558594 -65.351562 17.808594 -50.683594 18.707031 -36.214844 C 18.90625 -33.023438 20.453125 -31.078125 23.347656 -30.378906 C 21.949219 -30.378906 19.828125 -30.429688 16.984375 -30.53125 C 14.140625 -30.628906 12.023438 -30.679688 10.625 -30.679688 C 9.726562 -30.679688 8.355469 -30.628906 6.511719 -30.53125 C 4.664062 -30.429688 3.292969 -30.378906 2.394531 -30.378906 C 4.988281 -31.476562 6.535156 -32.375 7.035156 -33.074219 C 7.433594 -33.472656 7.632812 -34.46875 7.632812 -36.066406 L 7.933594 -86.050781 Z M 0.148438 -85.753906 " />
      </g>
    </g>
  </g>
  <g fill="#d500f9" fill-opacity="1">
    <g transform="translate(108.493793, 181.277783)">
      <g>
        <path d="M 24.351562 -0.101562 C 24.488281 -0.0351562 24.589844 0 24.65625 0 L 1.433594 -0.203125 C 5.183594 -1.363281 7.058594 -3.410156 7.058594 -6.34375 L 6.546875 -66.605469 C 6.273438 -68.992188 5.011719 -70.699219 2.761719 -71.722656 L 19.847656 -71.722656 C 19.710938 -71.652344 19.574219 -71.550781 19.441406 -71.414062 L 20.460938 -71.414062 C 29.058594 -68.210938 37.34375 -63.570312 45.324219 -57.5 C 45.871094 -47.609375 46.144531 -38.300781 46.144531 -29.570312 C 46.144531 -27.179688 46.042969 -23.632812 45.835938 -18.929688 C 45.222656 -16.269531 42.324219 -12.652344 37.140625 -8.082031 C 34.273438 -5.558594 31.308594 -3.035156 28.238281 -0.511719 L 25.167969 0 Z M 18.007812 -9.820312 C 18.074219 -9.617188 18.144531 -9.378906 18.210938 -9.105469 C 19.78125 -8.015625 22.101562 -6.992188 25.167969 -6.035156 C 26.535156 -6.785156 28 -7.84375 29.570312 -9.207031 C 31.410156 -10.84375 32.535156 -12.242188 32.945312 -13.402344 L 32.742188 -55.660156 C 32.058594 -57.976562 30.183594 -59.988281 27.113281 -61.695312 C 25.40625 -62.511719 22.851562 -63.777344 19.441406 -65.480469 C 19.03125 -64.390625 18.722656 -62.683594 18.519531 -60.363281 C 18.3125 -58.046875 18.007812 -56.339844 17.597656 -55.25 Z M 18.007812 -9.820312 " />
      </g>
    </g>
  </g>
  <g fill="#d500f9" fill-opacity="1">
    <g transform="translate(158.31695, 181.277783)">
      <g>
        <path d="M 17.597656 -63.128906 L 18.007812 -39.59375 L 26.089844 -35.910156 L 28.136719 -38.570312 L 26.910156 -66.503906 Z M 18.109375 -2.96875 L 26.089844 -5.21875 L 28.136719 -7.878906 L 27.011719 -30.285156 L 17.800781 -34.992188 Z M 40.210938 -23.839844 L 37.957031 -4.808594 L 26.910156 1.125 L 26.601562 1.125 L 1.535156 1.535156 C 5.285156 0.375 7.160156 -1.671875 7.160156 -4.605469 L 6.648438 -55.660156 C 6.378906 -58.046875 5.117188 -59.75 2.863281 -60.773438 L 17.699219 -67.015625 L 17.90625 -67.730469 L 28.75 -71.824219 L 40.210938 -56.578125 L 37.957031 -35.503906 L 32.433594 -32.433594 Z M 40.210938 -23.839844 " />
      </g>
    </g>
  </g>
</svg>
