<?xml version="1.0" encoding="utf-8"?>

<!DOCTYPE svg PUBLIC "-//W3C//DTD SVG 1.1//EN" "http://www.w3.org/Graphics/SVG/1.1/DTD/svg11.dtd">
<svg version="1.1" id="broom" xmlns="http://www.w3.org/2000/svg" xmlns:xlink="http://www.w3.org/1999/xlink" x="0px" y="0px"
	 width="64px" height="64px" viewBox="0 0 64 64" enable-background="new 0 0 64 64" xml:space="preserve">
<circle display="none" opacity="0.2" fill="#E1DC00" cx="33.316" cy="26.777" r="22.963"/>
<g display="none">
	<g display="inline">
		<path fill="none" stroke="#231F20" stroke-width="2" stroke-linejoin="round" stroke-miterlimit="10" d="M32,41.422L32,41.422
			c3.91,0,7.079,3.169,7.079,7.08c0,0,0,8.171,1.09,11.438c-1.09,0-8.169,0-8.169,0"/>
		<path fill="none" stroke="#231F20" stroke-width="2" stroke-linejoin="round" stroke-miterlimit="10" d="M32,41.422L32,41.422
			c-3.91,0-7.079,3.169-7.079,7.08c0,0,0,8.171-1.09,11.438c1.09,0,8.169,0,8.169,0"/>
	</g>
	
		<path display="inline" fill="none" stroke="#231F20" stroke-width="2" stroke-linecap="round" stroke-linejoin="round" stroke-miterlimit="10" d="
		M27.633,59.94c0.208-0.98,0.363-2.147,0.476-3.353c0.007-0.063,0.012-0.129,0.018-0.193l-0.598,3.546H27.633z"/>
	
		<path display="inline" fill="none" stroke="#231F20" stroke-width="2" stroke-linecap="round" stroke-linejoin="round" stroke-miterlimit="10" d="
		M36.367,59.94h0.104l-0.598-3.546c0.006,0.064,0.011,0.13,0.018,0.193C36.004,57.793,36.159,58.96,36.367,59.94z"/>
	
		<line display="inline" fill="none" stroke="#231F20" stroke-width="2" stroke-linecap="round" stroke-linejoin="round" stroke-miterlimit="10" x1="32" y1="56.395" x2="32" y2="59.94"/>
	<path display="inline" fill="none" stroke="#231F20" stroke-width="2" stroke-linejoin="round" stroke-miterlimit="10" d="
		M33.213,41.422h-3.261c0,0,0-3.259-0.814-4.891c1.632,0,3.261,0,4.891,0C33.213,38.978,33.213,41.422,33.213,41.422z"/>
	<path display="inline" fill="none" stroke="#231F20" stroke-width="2" stroke-linejoin="round" stroke-miterlimit="10" d="
		M29.665,36.531l1.168-9.336l-2.334-8.171l2.334-12.837c0.256-2.955,3.775-2.717,3.502,0L32,19.024l2.335,8.171l-1.168,9.336"/>
</g>
<path fill="#E4D58E" d="M30.438,37.442L30.438,37.442c-3.601-2.078-8.203-0.846-10.28,2.754c0,0-4.343,7.522-7.083,9.952
	c1.002,0.579,7.521,4.343,7.521,4.343l5.515,3.185c2.741-2.43,7.084-9.952,7.084-9.952C35.272,44.124,34.039,39.522,30.438,37.442
	L30.438,37.442"/>
<path fill="#E3DAC1" d="M28.063,36.561c-3.052-0.571-6.265,0.795-7.904,3.636c0,0-4.343,7.522-7.083,9.952
	c0.41,0.236,1.743,1.007,3.173,1.833c2.746-2.579,6.91-9.785,6.91-9.785C25.011,38.986,25.625,37,28,36.563L28.063,36.561z"/>
<path fill="#CABD7F" d="M30.438,37.442c-1.82-1.051-3.896-1.253-5.772-0.732c0.605,0.167,1.202,0.403,1.772,0.732
	c3.601,2.08,4.834,6.682,2.756,10.281c0,0-3.072,5.316-5.681,8.453l2.597,1.499c2.741-2.43,7.084-9.952,7.084-9.952
	C35.272,44.124,34.039,39.522,30.438,37.442z"/>
<path fill="#5E3E3A" d="M31.248,32.265l5.681-7.504l2.063-8.241l8.44-9.952c1.697-2.431,4.628-0.466,3.032,1.75l-8.441,9.952
	l-2.063,8.24l-5.679,7.505"/>
<path fill="#744D48" d="M33.166,33.182l-1.588-0.917l5.681-7.504l2.063-8.241l8.44-9.952c0.883-1.264,2.094-1.333,2.833-0.804
	c-0.292,0.181-0.577,0.437-0.833,0.804l-9.06,10.51l-2.002,8.419l-5.123,6.768L33.166,33.182z"/>
<path fill="#E4D58E" d="M31.876,38.273l-2.824-1.633c0,0,1.63-2.821,1.74-4.641c1.414,0.816,2.823,1.63,4.236,2.446
	C33.099,36.155,31.876,38.273,31.876,38.273z"/>
<path fill="#B14139" d="M31.876,38.273c0,0,0.582-0.995,1.562-2.169c-1.078-0.622-2.154-1.244-3.233-1.866
	c-0.506,1.283-1.152,2.402-1.152,2.402L31.876,38.273z"/>
<path fill="#272223" d="M51.694,5.966c-0.385-0.843-1.21-1.419-2.154-1.505c-1.109-0.097-2.176,0.458-2.87,1.461l-8.44,9.952
	c-0.1,0.117-0.17,0.255-0.207,0.404l-2.015,8.043l-5.07,6.698c-0.209-0.031-0.426-0.002-0.619,0.101
	c-0.305,0.164-0.504,0.475-0.524,0.82c-0.065,1.073-0.834,2.741-1.336,3.699c-0.584-0.125-1.177-0.206-1.776-0.206
	c-3.041,0-5.872,1.634-7.39,4.264C19.25,39.771,15,47.104,12.412,49.4c-0.24,0.213-0.364,0.529-0.332,0.849
	c0.033,0.32,0.217,0.604,0.495,0.766l13.035,7.527c0.155,0.09,0.328,0.134,0.5,0.134c0.238,0,0.476-0.086,0.663-0.252
	c2.83-2.508,7.106-9.888,7.287-10.2c1.881-3.258,1.354-7.252-1.018-9.924c0.451-0.684,1.391-1.991,2.648-3.104
	c0.24-0.214,0.364-0.529,0.332-0.85c-0.023-0.229-0.127-0.438-0.284-0.598l5.02-6.634c0.081-0.107,0.14-0.23,0.172-0.36l2.006-8.015
	l8.34-9.836C51.96,7.953,52.112,6.883,51.694,5.966z M32.328,47.224c-0.04,0.069-3.77,6.508-6.37,9.21l-1.401-0.809
	c0.473-0.583,0.973-1.241,1.501-1.986c0.003-0.004,0.062-0.088,0.063-0.092l0.063-0.09c0.304-0.44,0.207-1.042-0.221-1.365
	c-0.428-0.322-1.034-0.252-1.373,0.161l-1.896,2.296l-1.359-0.786c0.474-0.585,0.97-1.238,1.483-1.965l0.131-0.183
	c0.317-0.438,0.229-1.047-0.197-1.378c-0.429-0.331-1.039-0.263-1.383,0.154l-1.897,2.296l-1.36-0.786
	c0.479-0.592,0.988-1.264,1.541-2.044l0.104-0.152c0.284-0.446,0.174-1.036-0.254-1.348c-0.429-0.312-1.024-0.234-1.36,0.172
	l-1.895,2.296l-1.549-0.895c2.744-3.052,6.166-8.955,6.327-9.234c1.161-2.013,3.329-3.264,5.657-3.264
	c1.136,0,2.26,0.302,3.251,0.873l0.014,0.008C33.057,40.116,34.125,44.111,32.328,47.224z M31.551,36.931l-0.606-0.351
	c-0.002-0.001-0.004-0.003-0.006-0.004s-0.003-0.002-0.005-0.002l-0.543-0.314c0.351-0.693,0.812-1.696,1.108-2.697l1.885,1.089
	C32.585,35.497,31.959,36.336,31.551,36.931z M49.702,7.672l-8.441,9.952c-0.1,0.116-0.17,0.255-0.207,0.403L39.04,26.07
	l-5.022,6.638l-1.288-0.744l4.996-6.6c0.082-0.107,0.141-0.23,0.173-0.36l2.007-8.015l8.348-9.848
	c0.33-0.472,0.733-0.718,1.105-0.689c0.231,0.021,0.429,0.153,0.517,0.344C49.988,7.045,49.91,7.378,49.702,7.672z"/>
<path fill="#3887A8" d="M32.348,8.494c0.355-0.658,0.949-0.658,1.307,0c0.36,0.658,1.194,1.491,1.853,1.852
	c0.657,0.36,0.657,0.95,0,1.31c-0.658,0.361-1.492,1.193-1.853,1.853c-0.357,0.657-0.951,0.657-1.307,0
	c-0.363-0.66-1.195-1.492-1.854-1.853c-0.658-0.359-0.658-0.949,0-1.31C31.152,9.985,31.984,9.152,32.348,8.494z"/>
<path fill="#3887A8" d="M25.732,13.331c0.238-0.441,0.631-0.441,0.869,0c0.245,0.438,0.797,0.993,1.237,1.234
	c0.438,0.24,0.438,0.633,0,0.873c-0.44,0.239-0.992,0.795-1.237,1.235c-0.238,0.437-0.631,0.437-0.869,0
	c-0.241-0.439-0.797-0.996-1.236-1.235c-0.438-0.24-0.438-0.633,0-0.873C24.936,14.324,25.491,13.768,25.732,13.331z"/>
<path fill="#3887A8" d="M30.396,17.329c0.238-0.438,0.635-0.438,0.871,0c0.244,0.438,0.797,0.995,1.234,1.234
	c0.441,0.242,0.441,0.635,0,0.874c-0.438,0.238-0.99,0.794-1.234,1.232c-0.236,0.439-0.633,0.439-0.871,0
	c-0.242-0.438-0.797-0.994-1.233-1.232c-0.44-0.239-0.44-0.632,0-0.874C29.6,18.324,30.154,17.767,30.396,17.329z"/>
<path fill="#3887A8" d="M42.988,39.495c-0.357-0.657-0.949-0.657-1.307,0c-0.361,0.657-1.195,1.492-1.854,1.852
	c-0.658,0.358-0.658,0.949,0,1.308c0.658,0.36,1.492,1.194,1.854,1.854c0.357,0.657,0.949,0.657,1.307,0
	c0.361-0.66,1.195-1.494,1.854-1.854c0.657-0.358,0.657-0.949,0-1.308C44.184,40.987,43.35,40.152,42.988,39.495z"/>
<path fill="#3887A8" d="M46.102,46.672c-0.242-0.441-0.636-0.441-0.872,0c-0.244,0.438-0.797,0.993-1.234,1.234
	c-0.441,0.239-0.441,0.633,0,0.873c0.438,0.237,0.99,0.794,1.234,1.233c0.236,0.438,0.63,0.438,0.872,0
	c0.241-0.439,0.796-0.996,1.233-1.233c0.438-0.24,0.438-0.634,0-0.873C46.897,47.665,46.343,47.109,46.102,46.672z"/>
<path fill="#3887A8" d="M40.435,48.332c-0.238-0.44-0.631-0.44-0.868,0c-0.242,0.438-0.798,0.994-1.237,1.232
	c-0.438,0.241-0.438,0.635,0,0.874c0.439,0.238,0.995,0.796,1.237,1.233c0.237,0.438,0.63,0.438,0.868,0
	c0.245-0.438,0.8-0.995,1.237-1.233c0.438-0.239,0.438-0.633,0-0.874C41.234,49.326,40.68,48.77,40.435,48.332z"/>
</svg>
