<?xml version="1.0" standalone="yes"?>
<svg xmlns="http://www.w3.org/2000/svg" width="192" height="192">
<path style="fill:#010101; stroke:none;" d="M0 0L0 192L52 192L84 98L37 98C41.9524 64.466 62.4092 33.1116 70 0L0 0z"/>
<path style="fill:#d501f9; stroke:none;" d="M37 98L84 98L61.9252 162L52 192C63.5254 191.145 73.4654 170.544 79.8735 162L133.127 91C140.312 81.4198 152.971 69.6535 156 58L105 58L124 0L85 0L70.7029 1.02779L61.5648 25L46.5648 68L37 98z"/>
<path style="fill:#010101; stroke:none;" d="M124 0L105 58L156 58L130.873 93L82.1265 158L57 192L192 192L192 0L124 0z"/>
</svg>
