<svg xmlns="http://www.w3.org/2000/svg" width="1024" height="1024" viewBox="0 0 1024 1024">
  <defs>
    <style>
      .cls-1 {
        fill-rule: evenodd;
        fill: white;
      }
    </style>
  </defs>
  <path id="Color_Fill_3" data-name="Color Fill 3" class="cls-1" d="M432,330h-3l-8-10c-1.4-1.062-2.97-.671-4-2-4.154-5.358-7.758-11.8-13-16-1.828-1.465-4.6-2.185-6-4-1.359-1.763-1.366-3.616-3-5-6.606-5.6-14.893-9.826-15-22,3.029-2.094,3.154-3.026,9-3v-1h1v1c8.78,2.9,18.566,18.484,25,25l20,19,8,9c5.8,2.712,9.074-1.658,13,4,3.111,4.484,2.949,10.325,6,15a106.066,106.066,0,0,0,11,11c1.506,0.968,3-.348,4,1v3l25,24c3.361,3.758,4.58,8.22,10,10,2.274-6.988,21.172-22.173,27-28,10.5-10.5,20.5-21.5,31-32l14-13c4.191-5.638,13.531-17.293,19-21l6-2c8.4-5.62,22.253-25.189,32-26q0.5,1.5,1,3c0.867,1.114.635,0.872,1,3-5.486,4.114-8.91,13.8-15,18l-4,1-2,3c-7.459,5.335-12.706,10.7-19,17l-6,5c-2.77,3.734-4.83,7.69-8,11-12.223,12.763-26.349,23.66-37,38-6.168,8.3-24.809,18.335-26,30,9.027,5.883,1.509,6.484,5,14,0.859,1.85,14.468,14.472,17,17,2.967,2.962,5.136,3.625,9,6,2.712,1.667,4.057,5.387,6,8l11,10c2.361,3.176,7.768,11.418,11,13h5c5.616,1.656,11.129,3.689,14,8,2.538,3.81.785,9.445,3,14,1.06,2.181,4.594,3.155,6,5,7.2,9.452,15.713,16.713,24,25l35,36h10c2.549,3.923,9.262,9.268,11,14v7l34,33c7.109,7.109,10.666,17.042,25,17,1.384,1.056,3.295,1,6,1,3.084,4.561,9.982,5.614,13,10a83.159,83.159,0,0,1,7,15v10l8,7,19,20,15,3c1.3,0.7,10.333,12.439,11,14,1.841,4.3-.19,7.734,2,11,6.4,9.543,26.333,2.761,27,23,0.75,1.654.844,0.315,0,2-1.862,7.3-17.806,21.872-24,18-10.144-1.688-13.975-14.974-16-25-1.375-.642-3.1-2.625-4-3h-8c-2.973-1.093-5.581-5.164-8-7l-3-1c-1.247-1.539-.849-3.358-2-5-1.04-1.485-4.283-3.3-5-5v-9l-8-6c-3.715-3.756-15.605-20.388-19-22-4.223-2-11.629-.052-16-2-4.394-1.958-16.123-14.463-18-19V640c-4.563-3.01-7.725-8.589-11-13-2.269-3.056-7.5-5.5-10-8v-2c-5.321-6.382-12.639-12.608-19-18l-10-12h-7c-2.144-.791-12.171-9.043-13-11V566c-10.373-6.539-18.729-17.2-26-27-4.705-6.339-15.493-15.018-22-20-1.433-1.1-.919-3.456-2-5-2.25-3.214-7.055-7.272-10-10-1.138-1.054-6.025-5.582-7-6-7.344-3.149-12.731,2.543-16-7-4.086-4.391-1.086-10.749-4-15l-12-11c-10.988-10.988-22.089-21.942-33-33-2.9-2.936-5.214-9.236-9-11h-9c-2.722-1.117-2.861-4.395-6-3-5.015,1.776-6.565,6.691-10,10h-2l-25,26c-12.149,12.149-24.769,22.833-35,37l-16,15c-1.561,2.275-1.317,4.909-3,7-2.128,2.644-6.543,4.545-9,7-11.512,11.5-23.421,22.559-33,36-6.971,9.781-16.551,18.551-25,27-4.458,4.458-10.5,6.5-11,15-4.162,4.893-.335,13.25-1,18-2.864,1.718-5.873,4.606-9,6-3.323,1.482-5.337,1.1-8,3l-6,7c-6.572,4.739-14.52,8.36-19,15-1.681,2.492-1.33,5.5-3,8-2.387,3.575-7.808,6.407-10,10-3.154,5.169-4.6,9.965-8,15l-4,3c-3.775,5.6-4.981,11.773-11,15h-3c-5.7,2.636-17.133,9.9-20,15q-1,5-2,10c-1.554,4.584-5.815,7.924-2,13,1,3.213,2.16,2.951,4,5l7,1c3.473-.728,4.348-2.882,8-2-2.471,5.284-8.091,14.17-14,16-5.977,5.236-17.717-.215-23-2-18.226-6.157-39.769,2.3-39-25-1.122-1.382-.021-2.966-1-5l-3-2c-2.412-3.663-5.111-14.317-2-20l4-3c3-5.166,2.844-9.106,9-11,5.781-4.631,18.277-1.346,27-5,10.561-4.424,18.943-13.456,28-20l9-10h3c1.687-1.038,16.735-16.158,18-18,1.591-2.316,1.432-4.747,3-7,3.646-5.239,8.934-11.173,12-17l3-9c1.089-1.692,4.029-4.091,5-6,1.494-2.937.679-4.96,2-8,3.761-8.653,7.533-18.882,13-26,10.033,3.758-.273,20.234,15,21,6.2-9.773,18.328-14.025,25-23a143.413,143.413,0,0,1,14-16l6-5c9.9-16.1,26.023-29.875,41-41l16-17,17-16c2.065-2.779,3.292-5.987,6-8,5.441-4.045,12.01-8.629,16-14a114.814,114.814,0,0,1,24-24c6.679-4.961,10.81-13.432,18-18v-1c-4.554-2-9.017-8.161-12-12l-9-8c-6.143-6.208-11.826-12.827-18-19s-8.743-12.561-21-13C435.061,341.961,431.914,341.144,432,330Z"/>
</svg>
