<svg xmlns="http://www.w3.org/2000/svg" width="1024" height="1024" viewBox="0 0 1024 1024">
  <defs>
    <style>
      .cls-1 {
        fill-rule: evenodd;
        fill: white;
      }
    </style>
  </defs>
  <path id="Color_Fill_5" data-name="Color Fill 5" class="cls-1" d="M379,207H659c45.734-.009,91.139-5.562,111,21,14.789,19.779,8.765,40.781,1,64-15.864,47.435-29.233,97.647-45,145-20.729,62.256-36.6,125.7-57,187-10.425,31.325-13.909,65.612-39,82-22.929,14.976-82.342,10-120,10H225l-12,13c-0.326,51.988,49.084,49,101,49H639c10.852,0,22.072,2.937,32,0,9.115-2.7,19.953-9.017,25-16,6.436-8.9,7.143-21.364,11-33,6.74-20.331,11.969-41.569,19-63,17.169-52.334,32.238-108.125,50-160,6.924-20.222,9.388-38.848,16-59,6.748-20.569,12.136-42.137,19-64,4.8-15.291,10.7-25.927,11-48h1c7.395,10.645,16.226,18.009,20,33,4.854,19.281-8.582,45.723-13,59-13.314,40.013-22.976,80.82-36,120-19.332,58.155-33.949,117.882-53,175-9.579,28.718-13.394,58.787-35,75-34.531,25.912-74.848,21-134,21H269a177.778,177.778,0,0,1-52-26c-28.139-20.533-41.253-58.082-30-103q-0.5-18.5-1-37c1.061-2.984,5.234-5.548,7-8,5.5-7.643,11.162-16.187,16-24,9.5-15.342,18.287-41.072,23-60q-0.5-15-1-30c9.9-6.7,15.611-18.681,21-30,8.457-17.763,15.881-35.947,21-58q-0.5-15-1-30c22.033-14.982,35.554-46.579,44-75,3.034-10.209-1.215-41.416,3-47,7.393-9.124,16.686-16.679,23-27,8.332-13.619,10.684-32.11,20-45C366.231,212.146,373.293,211.432,379,207Zm179,60c-3.777,2.265-8.9.7-14,2l-35,9c-41.062,15.272-81.014,34.718-105,67a215.647,215.647,0,0,0-26,46l-7,26c-3.7,14.874-.041,33.56,4,44,14.9,38.5,54.234,52.764,104,53v1l-26,80c-1.18.8-1.681,0.773-4,1-1.35-1.624-.64-1.121-3-2v14c1.749,2.643,1.126,9.7,1,14h2v-2c2.14-2.314,2.217-5.126,4-8,4.025-6.488,9.842-12.526,14-19h-3a11.725,11.725,0,0,1-5,2v-3c4.966-6.719,5.877-16.586,9-25,6.446-17.368,12.1-37.189,20-54,72.411-7.35,132.908-49.574,157-105,20.194-46.457,16.625-104.7-34-116v2c10.234,6.516,23.067,16.293,29,27,12.731,22.974,3.415,60.985-6,80-23.1,46.649-70.914,91.029-139,92v-2c4.094-5.465,4.153-13.1,7-20,6.145-14.9,10.477-31.183,17-47,14.128-34.255,23.62-70.963,38-106,5.885-14.339,14.461-30.683,17-47-1.766-.961-1.68-1.257-4-2C567.333,266.867,563.046,266.88,558,267Zm-15,16h11v2c-3.037,4.27-3,10.647-5,16-5.183,13.894-8.959,27.976-14,43-10.633,31.689-21.461,66.456-33,98-4.777,13.059-7.537,26.008-12,38-1.925,5.174-1.365,11.571-6,14-7.746,4.988-38.939-1.17-45-3-25.513-7.7-42.086-16.16-50-41q-0.5-7-1-14c-1.878-8.774-.582-22.113,2-31a197.806,197.806,0,0,1,7-21c17.909-42.424,59.82-69.718,102-88l30-10C533.628,284.512,539.307,285.409,543,283Z"/>
</svg>
