<svg xmlns="http://www.w3.org/2000/svg" width="1024" height="1024" viewBox="0 0 1024 1024">
  <defs>
    <style>
      .cls-1 {
        fill-rule: evenodd;
        fill: white;
      }
    </style>
  </defs>
  <path id="Color_Fill_4" data-name="Color Fill 4" class="cls-1" d="M496,126c3.844,2.324,23.824,22.126,25,26-7.381,4.47-12.973,12.972-19,19-2.9,2.9-6.638,4.52-8,9l37,36c4.1,4.1,7.95,11.121,14,13,4.47-7.381,12.972-12.973,19-19,2.9-2.9,4.52-6.638,9-8L757,387l46,46c4.932,4.932,16.925,13.318,19,20-7.381,4.47-12.973,12.972-19,19-2.9,2.9-6.638,4.52-8,9,8.474,5.2,15.037,15.037,22,22l19,19c2.7,2.7,5.927,4.64,8,8h1v-1c5.19-3.167,8.783-8.783,13-13,4.529-4.529,10.586-8.449,14-14a2.146,2.146,0,0,1,1,1c3.776,2.281,22.834,21.156,24,25-5.183,3.207-8.77,8.77-13,13l-29,29-91,91L602,823l-50,50c-7.254,7.254-18.657,15.375-24,24h-1v-1c-3.776-2.281-22.834-21.156-24-25,2.742-1.623,10.851-9.106,12-12l-37-36c-4.1-4.1-7.95-11.121-14-13-2.337,3.942-8.282,10.6-13,12-2.158-6.983-11.2-12.2-16-17l-41-41L258,627l-39-39c-4.313-4.312-14.77-11.588-17-17,3.942-2.337,10.6-8.282,12-13l-37-36c-4.1-4.1-7.95-11.121-14-13l-11,12h-1v-1c-7.009-4.27-12.282-12.26-18-18-1.382-1.388-6.769-3.983-6-7l23-22,61-62q97.5-97.5,195-195l61-61,20-20C490.01,131.99,493.7,129.722,496,126Zm-47,97-37,38c-4.335,4.335-12.024,8.638-14,15l37,36c4.1,4.1,7.95,11.121,14,13l51-52Zm-95,95-36,37c-4.408,4.408-12.8,8.782-14,16,8.474,5.2,15.037,15.037,22,22l19,19c2.7,2.7,5.927,4.64,8,8a2.146,2.146,0,0,0,1-1c8.474-5.207,15.037-15.037,22-22l20-20c3.008-3.009,6.7-5.276,9-9Zm180,79c1.247,28.268,9.587,54.1,10,84h-2c-5.873-6.441-16.145-2.717-25-2V428q2-6,4-12c1.149-1.8,2.131-1.194,3-4h-6c-3.522,2.759-29.37.941-34,0v2c9.327,5.455,3.238,12.766,6,24,3.447,14.017,1.13,35.084,1,51-9.394,2.576-13.936,11.451-25,13q-0.5-27-1-54V427c1.19-2.6,3.27-1.648,4-6-8.681-.08-19.977-0.735-27,1-6.03,1.49-10.146-1.695-15,0a2.146,2.146,0,0,0,1,1,76.948,76.948,0,0,0,7,7q1,38.5,2,77h-1c-6.652-5.727-17.276-6.352-22-14,3.757-1.935,10.588-4.652,12-9h-2c-2.327,1.776-13.538,3.429-17,5,0.615,1.921.01,0.883,1,2,1.96,7.9,8.5,15.566,15,19,2.386,1.26,14.065,4.714,15,6v35c-2.312,3.045-.931,9.934-3,13-2.688,3.983-8.731,3.37-10,9,16.827-.217,37.374-1.725,50,3v-2c-3.473-1.608-5.359-3.741-8-6q-0.5-27-1-54h1v-1c11.13-.136,16.363-6.752,25-9v22c1.915,2.474,1.037,9.815,1,14-0.09,10.344-.637,30.587-5,37-2.752,4.045-6.226,2.116-7,9,10.524-.268,22.2-0.332,33,0,4.239,0.131,10.655,2.39,13,1,1-1.118.362-.1,1-2-10.432-2.963-10-15.514-10-29V487a2.146,2.146,0,0,0,1-1l14-3q0.5,1.5,1,3c3.368,4.394,1.348,11.707,3,18,2.587,9.855,3.8,21.922,5,33h-1a25.583,25.583,0,0,0-7-7v5c3.741,5.045,2.033,16.787,4,24,2.349,8.613,3.719,20.3,6,29v8c2.275,8.44,4.566,19.082,5,29h2V613c2-2.754-.034-7.925,1-12,1.731-6.823.267-28.747,4-33v1c2.022,2.218,5.21,8.69,6,12h2V520h1v2c3.362,3.244,5.1,9.4,7,14h2v-8c-3.721-4.989-.124-21.447-2-29-5.081-20.455-2.04-56.693-2-81l3-1c2.378-1.959,8.567-2.372,12-3,1.51,2.8,2.053,4.965,2,10,3.376,4.458.409,12.58,2,19,2.971,11.987,1.065,30.182,1,44-2.148,1.342-2.867,2.653-4,5-5.039-3.236-6.26-9.59-14-10v2c6.668,6.359,5.231,17.106,18,17,2.508-2.1,5.588-1.52,9-3,3.116-1.351,13.764-7.329,15-10V470c1.814-2.3.149-6.413,1-10,0.946-3.986,3.938-20.239,1-24-1.146-4.271-3.9-5.106-6-8-3-4.138-5.009-7.922-8-12l-5-4c-2.722-3.69-4.07-7.538-9-9-3.62,3.218-12.064,5.636-18,6a51.456,51.456,0,0,1,1-11,16.547,16.547,0,0,0-6-1C562.092,399.259,540.681,397.126,534,397ZM258,414l-36,37c-4.335,4.335-12.024,8.638-14,15l37,36c4.1,4.1,7.95,11.121,14,13l36-37c4.335-4.335,12.024-8.638,14-15l-37-36C267.9,422.9,264.05,415.879,258,414ZM750,524l-37,38c-4.335,4.335-12.024,8.638-14,15,8.474,5.205,15.037,15.037,22,22l19,19c2.7,2.7,5.927,4.64,8,8h1v-1c4.459-2.728,7.388-7.388,11-11l26-26c4.324-4.324,12.048-8.645,14-15Zm-95,95-36,37c-4.408,4.408-12.8,8.782-14,16l36,35c4.1,4.1,7.95,11.121,14,13l37-38c3.83-3.83,10.863-7.813,13-13h1v-1c-6.044-1.858-9.911-8.911-14-13Zm-96,96-36,37c-4.335,4.335-12.024,8.638-14,15,8.474,5.205,15.037,15.037,22,22l19,19c2.7,2.7,5.927,4.64,8,8h1v-1c4.459-2.727,7.389-7.389,11-11l25-25c3.873-3.873,12.991-10.079,15-15l-37-36C568.9,723.9,565.05,716.879,559,715Z"/>
</svg>
