<svg xmlns="http://www.w3.org/2000/svg" width="1024" height="1024" viewBox="0 0 1024 1024">
  <defs>
    <style>
      .cls-1 {
        fill-rule: evenodd;
        fill: white;
      }
    </style>
  </defs>
  <path id="Color_Fill_1" data-name="Color Fill 1" class="cls-1" d="M643,376c0.229,13.622,4.209,32.269,1,47-3.267,15-6.641,37.6-7,53,13.007,2.631,7.625,32.218,4,42-3.876,10.459-10.364,24.174-19,30-2.485,1.676-7.341,1.626-9,4-4.139,5.925-5.036,17.792-8,25-5.14,12.5-11.551,26.208-15,40l49,47c12.026,7.9,28.293,10.085,42,16,34.91,15.064,78.594,29.943,107,52,1.93,1.5,1.552,3.907,3,6,3.689,5.332,9.476,10.33,13,16,6.418,10.325,10.327,21.072,16,32,18.125,34.916,32.329,70.308,47,110,5.327,14.411,12.73,30.564,15,47H142c0.681-7.323,4.018-13.155,6-19,5.67-16.718,9.679-32.83,16-48,21.055-50.534,39.6-100.9,70-142,3.266-4.415,18.778-12.8,24-16,9.774-5.986,20.218-9.265,31-14,19.007-8.348,39.758-17.806,59-26,12.244-5.214,26.343-7,37-14,9.493-6.235,17-17.033,25-25,7.089-7.062,20.472-13.99,24-24-3.511-4.661-3.732-10.992-6-17-4.977-13.185-9.059-28.5-15-42-2.644-6.009-9.638-6.782-14-11-6.989-6.758-12.393-18.136-16-28-3.636-9.943-7.585-33.009,1-40,1.073-.752.946-0.6,3-1-0.2-11.294-2.73-22.848-5-33-3.68-16.458-1.832-35.334-2-54-35.48,1.718-92.078.279-118-15-10.62-6.26-20.123-9.945-20-27,5.357-6.8,7.626-13.211,16-17,37.929-17.16,84.049.6,125,2,3.1-4.17,7.837-7.8,10-13,1.916-4.605.23-11.38,3-15l21-12c5.892-4.3,7.022-11.617,11-18,4.824-7.74,12.293-15.09,17-23,5.626-9.454,5.485-22.572,10-33,6.879-15.891,18.477-28.776,28-42,10.556-14.658,21.025-29.783,34-42,6.354-5.983,16.162-.8,23-5,5.525-3.4,9.715-11.07,15-15,4.258-3.166,8.651-4.873,13-8,4.938-3.55,9.1-9.455,14-13,5.812-4.207,12.482-6.506,18-11,22.76,4.055,44.586,16.4,62,27,7.854,4.783,17.012,6.554,22,14q2.5,7,5,14c5.092,8.713,12.99,16.99,20,24,12.6,12.6,14.525,13.421,21,33,0.952,2.88,5.335,8.173,4,10-1.224,3.1-.375,2.261-4,3-6.035-5.586-43.872-25.6-54-26-10.6,10.112-24.42,13.515-42,17v50c-3.076,5.314,2.306,20.336,0,29-1.29,4.845-6,9.856-7,15-2.32,11.879,5.468,28.142,9,35,2.42,4.7.062,7.575,6,9,2.108-1.307,23.705-3.476,27-3,8.165,1.179,23.626-4.669,33-7,12.989-3.229,30.3-.88,44-3,13.28-2.055,31.8,1.486,35,10,1.344,1.681,1.637,3.143,2,6-3.457,4.272-4.561,9.763-9,13C747.918,371.024,684.438,375.864,643,376Z"/>
</svg>
