<svg xmlns="http://www.w3.org/2000/svg" width="1024" height="1024" viewBox="0 0 1024 1024">
  <defs>
    <style>
      .cls-1 {
        fill-rule: evenodd;
        fill: white;
      }
    </style>
  </defs>
  <path id="Color_Fill_2" data-name="Color Fill 2" class="cls-1" d="M485,121c5.9-.077,8.791.978,13,2,1.807,2.718,3.777,3.544,5,7,3.6,4.377,1.249,11.183,0,16-2.718,1.807-3.544,3.777-7,5-4.377,3.6-11.183,1.249-16,0-1.807-2.718-3.777-3.544-5-7-3.6-4.377-1.249-11.183,0-16A104.171,104.171,0,0,0,485,121Zm104,32c5.9-.077,8.791.978,13,2l6,7c0.3,6.751-.17,8.752-1,15-5.754,4.551-6.81,8.063-18,8-4.105-3.165-8.1-3.479-10-9-3.6-4.377-1.249-11.183,0-16A104.171,104.171,0,0,0,589,153Zm-85,70c18.605-.7,25.209,6.647,29,21,1.041,3.942,1.392,9.8-1,13-2.277,8.562-8.538,9.874-14,15-5.572.544-12.507,2.11-18,0-10.783-4.143-20.764-19.762-14-35,2.849-6.418,9.186-8.57,14-13C502.328,223.805,502.826,223.807,504,223Zm151,8,12,1c3.629,4.538,8.217,5.251,9,13,2,2.951.519,7.591,0,11-6.851,5.455-7.621,10.113-21,10-7.419-5.936-13.158-7.036-13-21,1.541-1.951,1.5-4.81,3-7C647.231,234.732,651.963,233.528,655,231Zm-256,2,11,1c4.551,5.754,8.063,6.81,8,18-5.514,6.1-5.825,11.027-18,11a11.725,11.725,0,0,0-5-2c-3.812-5.611-7.017-6.76-7-17,1.879-2.255,2.674-6.233,5-8C394.855,234.591,397.29,234.43,399,233ZM276,350c0.285-20.7,13.731-32.829,34-31,5.036-25.274,32.244-49.689,63-39,10.364,3.6,20.743,18.076,29,19,11.96-7.863,22.9,9.27,30,11,3.532-5.169,9.559-6.605,16-9,25.167-9.358,51.52,5.965,60,23,5.429-1.377,9.572-5.474,15-7,3.309-.93,6.8.452,9-1,2.9-3.758,3.4-8.831,6-13,4.71-7.542,13.278-15.485,21-20,28.9-16.9,61.206,9.087,67,32h1c-0.156-12.276,6.375-17.416,19-17,1.482,1.267,6.642,5.5,8,6,3.922,1.459,11.285-2.341,14-3,8.3-2.015,16.863,1.277,23,2,5.018-12.713,8.406-12.91,17-21,5.2-.348,9.206-1.682,13,1,7.569,2.1,13.074,9.347,15,17,1.035,4.114-.722,9.126,1,12,8.545,6.145,14.513,4.8,20,15,2.009,3.733,3.514,20.293,6,22,1.776-1.183,4.111-.345,7-1,23.4-5.305,35.394,18.559,26,39-5.385,11.718-16.767,12.837-31,16-4.955,1.1-7.885-.228-11,2-19.879,20.484,2.565,50.667,14,62,32.472,32.185,54.277,66.2,68,118,3.075,11.609,8.642,39.06,5,55-3.755,16.433-3.124,33.049-8,48-9.961,30.54-22.257,58.183-39,82-11.9,16.924-27.334,32.652-42,47-5.184,5.072-15.9,9.3-18,17,10.167,7.749,21.387,28.489,18,46-5.894,4.032-29.064,11.232-39,4-10.824-3.9-15.193-19.631-24-24-11.67,10.7-34.434,15.9-51,22-27.317,10.065-87.826,24.572-122,19l-7,1c-7.694.313-20.79-.415-28-2H467l-44-7c-20.006-5.612-40.748-11.065-59-19-9.506-4.132-19.072-12.134-30-14-7.261,13-16.377,25.988-37,26-6.009,0-12.536.514-16-2-5.06-1.732-5.784-5.605-9-9-0.24-22.153,14.4-29.055,19-44-9.785-6.273-16.07-16.239-25-23-28.223-21.369-52.489-62.864-67-98-4.075-9.866-4.784-19.245-8-30-3.983-13.319-11.49-50.435-7-70q3-17.5,6-35c8.671-26.788,19.309-51.087,34-72a260.505,260.505,0,0,1,28-33c5.777-5.777,13.39-11.2,18-18a41.474,41.474,0,0,0,4-39c-2.165-5.108-.526-7.974-7-9-6.781-3.921-21.163-.687-29-6-9.961-6.753-17.343-27.529-9-41,2.43-3.923,6.818-5.833,10-9C251.8,347.018,263.022,349.557,276,350Z"/>
</svg>
