<svg xmlns="http://www.w3.org/2000/svg" xmlns:xlink="http://www.w3.org/1999/xlink" width="500" zoomAndPan="magnify" viewBox="0 0 375 374.999991" height="500" preserveAspectRatio="xMidYMid meet" version="1.0"><defs><g/><clipPath id="9f9263895c"><path d="M 0 114.515625 L 112.5 114.515625 L 112.5 227.015625 L 0 227.015625 Z M 0 114.515625 " clip-rule="nonzero"/></clipPath><clipPath id="0f72cbcb55"><path d="M 87 118.5 L 118.277344 118.5 L 118.277344 222.75 L 87 222.75 Z M 87 118.5 " clip-rule="nonzero"/></clipPath><clipPath id="1199c98e25"><path d="M 139.101562 138.113281 L 152.667969 138.113281 L 152.667969 145.273438 L 139.101562 145.273438 Z M 139.101562 138.113281 " clip-rule="nonzero"/></clipPath></defs><g fill="#d500f9" fill-opacity="1"><g transform="translate(91.599309, 167.713818)"><g><path d="M 26.902344 -0.167969 C 40.523438 -0.167969 51.648438 -11.238281 51.648438 -24.910156 C 51.648438 -38.472656 40.523438 -49.546875 26.902344 -49.546875 C 13.285156 -49.546875 2.214844 -38.472656 2.214844 -24.910156 C 2.214844 -11.238281 13.230469 -0.167969 26.902344 -0.167969 Z M 26.902344 -7.25 C 17.160156 -7.25 9.300781 -15.167969 9.300781 -24.910156 C 9.300781 -34.597656 17.160156 -42.402344 26.902344 -42.402344 C 36.535156 -42.402344 44.453125 -34.542969 44.453125 -24.910156 C 44.453125 -15.167969 36.589844 -7.25 26.902344 -7.25 Z M 26.902344 -7.25 "/></g></g></g><g clip-path="url(#9f9263895c)"><path fill="#ffffff" d="M 0 114.515625 L 112.5 114.515625 L 112.5 227.015625 L 0 227.015625 L 0 114.515625 " fill-opacity="1" fill-rule="nonzero"/></g><g clip-path="url(#0f72cbcb55)"><path fill="#d500f9" d="M 88.660156 155.722656 C 90.035156 157.421875 90.035156 157.421875 91.800781 156.691406 C 94.746094 155.476562 97.664062 154.183594 100.652344 153.078125 C 102.140625 152.527344 102.464844 151.402344 102.867188 149.949219 C 98.042969 151.910156 93.410156 153.792969 88.660156 155.722656 Z M 105.371094 126.21875 C 105.28125 126.199219 105.191406 126.179688 105.101562 126.160156 C 103.066406 132.992188 101.03125 139.828125 98.921875 146.898438 C 99.773438 146.609375 100.355469 146.339844 100.964844 146.226562 C 102.035156 146.023438 102.34375 145.351562 102.488281 144.355469 C 102.945312 141.144531 103.484375 137.949219 103.996094 134.746094 C 104.453125 131.902344 104.910156 129.0625 105.371094 126.21875 Z M 90.9375 190.953125 C 93.769531 189.972656 96.539062 189.027344 99.289062 188.039062 C 99.609375 187.925781 99.980469 187.625 100.09375 187.320312 C 100.511719 186.183594 100.835938 185.007812 101.261719 183.648438 C 97.09375 185.332031 93.144531 186.925781 89.121094 188.554688 C 89.691406 189.308594 90.273438 190.078125 90.9375 190.953125 Z M 98.558594 176.699219 C 100.085938 176.046875 101.335938 175.613281 102.476562 174.984375 C 103.078125 174.65625 103.710938 174.070312 103.957031 173.453125 C 107.441406 164.722656 110.855469 155.964844 114.296875 147.214844 C 115.0625 145.269531 114.871094 144.625 113.164062 143.429688 C 108.351562 154.394531 103.527344 165.382812 98.558594 176.699219 Z M 115.816406 170.886719 C 107.378906 187.867188 99.039062 204.652344 90.703125 221.4375 C 92.464844 222.351562 92.773438 222.257812 93.558594 220.726562 C 96.84375 214.34375 100.136719 207.960938 103.421875 201.574219 C 108.003906 192.683594 112.585938 183.796875 117.140625 174.894531 C 117.339844 174.5 117.425781 173.890625 117.265625 173.503906 C 116.917969 172.648438 116.375 171.871094 115.816406 170.886719 Z M 107.246094 118.710938 C 106.195312 127.578125 104.417969 136.347656 103.160156 145.40625 C 105.863281 144.433594 108.378906 143.546875 110.882812 142.632812 C 113.171875 141.792969 113.164062 141.777344 114.683594 143.710938 C 115.160156 144.3125 115.625 144.921875 115.941406 145.324219 C 112.15625 154.910156 108.4375 164.335938 104.585938 174.089844 C 107.339844 172.902344 109.746094 171.863281 112.152344 170.824219 C 112.976562 170.46875 113.839844 170.191406 114.605469 169.734375 C 115.519531 169.191406 116.019531 169.597656 116.453125 170.332031 C 116.992188 171.253906 117.609375 172.148438 118.003906 173.132812 C 118.21875 173.671875 118.261719 174.488281 118.007812 174.988281 C 113.332031 184.171875 108.597656 193.324219 103.875 202.484375 C 100.644531 208.753906 97.398438 215.019531 94.207031 221.3125 C 93.703125 222.304688 93.183594 222.746094 92.03125 222.4375 C 91.085938 222.183594 90.078125 222.179688 88.945312 222.046875 C 92.496094 210.875 95.960938 199.984375 99.496094 188.867188 C 97.066406 189.703125 94.777344 190.429688 92.539062 191.296875 C 91.402344 191.738281 90.675781 191.578125 89.929688 190.566406 C 89.34375 189.773438 88.496094 189.160156 87.710938 188.53125 C 86.875 187.859375 87.132812 187.085938 87.449219 186.34375 C 89.871094 180.683594 92.328125 175.039062 94.753906 169.375 C 96.890625 164.382812 98.996094 159.378906 101.109375 154.378906 C 101.171875 154.230469 101.203125 154.066406 101.316406 153.667969 C 99.550781 154.386719 97.96875 155.042969 96.375 155.675781 C 94.515625 156.40625 92.648438 157.125 90.777344 157.828125 C 90.023438 158.109375 89.390625 157.921875 88.871094 157.265625 C 88.527344 156.832031 88.089844 156.480469 87.703125 156.078125 C 86.980469 155.324219 86.804688 154.574219 87.367188 153.5625 C 93.175781 143.140625 98.949219 132.695312 104.714844 122.25 C 105.1875 121.394531 105.542969 120.46875 105.980469 119.589844 C 106.167969 119.207031 106.425781 118.863281 106.648438 118.5 C 106.847656 118.570312 107.046875 118.640625 107.246094 118.710938 " fill-opacity="1" fill-rule="nonzero"/></g><g clip-path="url(#1199c98e25)"><path fill="#d500f9" d="M 141.082031 145.273438 C 140.824219 145.273438 140.566406 145.21875 140.3125 145.109375 C 139.304688 144.683594 138.835938 143.523438 139.261719 142.519531 C 140.386719 139.839844 142.984375 138.113281 145.886719 138.113281 C 148.785156 138.113281 151.382812 139.839844 152.519531 142.519531 C 152.945312 143.523438 152.476562 144.691406 151.46875 145.109375 C 150.464844 145.539062 149.296875 145.066406 148.882812 144.0625 C 148.367188 142.859375 147.191406 142.078125 145.886719 142.078125 C 144.578125 142.078125 143.414062 142.859375 142.898438 144.0625 C 142.589844 144.8125 141.851562 145.273438 141.082031 145.273438 Z M 141.082031 145.273438 " fill-opacity="1" fill-rule="nonzero"/></g><g fill="#d500f9" fill-opacity="1"><g transform="translate(146.46751, 167.73609)"><g><path d="M 26.902344 -0.167969 C 40.523438 -0.167969 51.648438 -11.238281 51.648438 -24.910156 C 51.648438 -38.472656 40.523438 -49.546875 26.902344 -49.546875 C 13.285156 -49.546875 2.214844 -38.472656 2.214844 -24.910156 C 2.214844 -11.238281 13.230469 -0.167969 26.902344 -0.167969 Z M 26.902344 -7.25 C 17.160156 -7.25 9.300781 -15.167969 9.300781 -24.910156 C 9.300781 -34.597656 17.160156 -42.402344 26.902344 -42.402344 C 36.535156 -42.402344 44.453125 -34.542969 44.453125 -24.910156 C 44.453125 -15.167969 36.589844 -7.25 26.902344 -7.25 Z M 26.902344 -7.25 "/></g></g></g><g fill="#d500f9" fill-opacity="1"><g transform="translate(201.450946, 183.364479)"><g><path d="M 20.6875 -54.140625 L 14.777344 -54.140625 L 13.824219 -9.289062 C 13.683594 -9.007812 13.613281 -8.722656 13.613281 -8.441406 C 13.613281 -7.175781 15.304688 -5.101562 18.679688 -2.214844 L 10.027344 -5.382812 C 6.648438 -6.648438 4.855469 -8.160156 4.644531 -9.921875 L 5.171875 -54.5625 L -3.695312 -54.5625 C 2.355469 -57.941406 8.40625 -63.78125 14.457031 -72.082031 L 14.246094 -58.679688 L 19.734375 -58.679688 Z M 20.6875 -54.140625 "/></g></g></g><g fill="#d500f9" fill-opacity="1"><g transform="translate(222.768858, 183.364479)"><g><path d="M 20.6875 -54.140625 L 14.777344 -54.140625 L 13.824219 -9.289062 C 13.683594 -9.007812 13.613281 -8.722656 13.613281 -8.441406 C 13.613281 -7.175781 15.304688 -5.101562 18.679688 -2.214844 L 10.027344 -5.382812 C 6.648438 -6.648438 4.855469 -8.160156 4.644531 -9.921875 L 5.171875 -54.5625 L -3.695312 -54.5625 C 2.355469 -57.941406 8.40625 -63.78125 14.457031 -72.082031 L 14.246094 -58.679688 L 19.734375 -58.679688 Z M 20.6875 -54.140625 "/></g></g></g><g fill="#d500f9" fill-opacity="1"><g transform="translate(244.086769, 183.364479)"><g><path d="M 27.863281 -39.683594 L 25.222656 -34.195312 C 22.480469 -35.8125 19.347656 -36.621094 15.832031 -36.621094 C 13.71875 -36.621094 12.417969 -36.339844 11.925781 -35.777344 L 12.664062 -18.46875 C 13.226562 -17.273438 14.421875 -16.183594 16.253906 -15.199219 C 17.660156 -17.027344 18.609375 -19.3125 19.101562 -22.058594 C 19.171875 -22.339844 19.347656 -24.132812 19.628906 -27.441406 L 24.273438 -21.53125 L 17.835938 -12.347656 L 12.453125 -12.242188 L 1.792969 -21.53125 C 1.230469 -24.203125 0.949219 -27.265625 0.949219 -30.710938 C 0.949219 -35.636719 1.441406 -40.808594 2.425781 -46.226562 L 14.246094 -55.515625 C 15.09375 -55.796875 15.796875 -55.761719 16.359375 -55.410156 L 24.90625 -49.816406 Z M 20.261719 -39.050781 L 14.882812 -51.1875 C 14.386719 -51.820312 14.070312 -52.136719 13.929688 -52.136719 C 13.648438 -52.136719 13.367188 -51.890625 13.085938 -51.398438 L 11.820312 -39.367188 C 15.761719 -39.578125 18.574219 -39.472656 20.261719 -39.050781 Z M 20.261719 -39.050781 "/></g></g></g><g fill="#d500f9" fill-opacity="1"><g transform="translate(273.003132, 183.364479)"><g><path d="M 0.105469 -60.472656 C 3.695312 -62.9375 7.773438 -65.996094 12.347656 -69.65625 L 12.347656 -60.15625 C 16.007812 -63.324219 18.398438 -64.90625 19.523438 -64.90625 C 19.875 -64.90625 20.121094 -64.800781 20.261719 -64.589844 L 25.222656 -55.9375 C 25.785156 -55.304688 26.066406 -54.667969 26.066406 -54.035156 C 26.066406 -53.332031 25.714844 -52.875 25.011719 -52.664062 L 15.304688 -46.964844 L 15.304688 -47.386719 C 16.78125 -48.792969 17.625 -50.097656 17.835938 -51.292969 C 17.554688 -52.347656 17.0625 -53.648438 16.359375 -55.195312 C 15.445312 -57.167969 14.742188 -58.082031 14.246094 -57.941406 C 13.824219 -57.871094 13.296875 -57.414062 12.664062 -56.570312 C 12.382812 -46.085938 12.558594 -35.742188 13.191406 -25.539062 C 13.332031 -23.289062 14.421875 -21.917969 16.464844 -21.425781 C 15.480469 -21.425781 13.984375 -21.460938 11.980469 -21.53125 C 9.972656 -21.601562 8.476562 -21.636719 7.492188 -21.636719 C 6.859375 -21.636719 5.894531 -21.601562 4.589844 -21.53125 C 3.289062 -21.460938 2.320312 -21.425781 1.6875 -21.425781 C 3.519531 -22.199219 4.609375 -22.832031 4.960938 -23.324219 C 5.242188 -23.605469 5.382812 -24.308594 5.382812 -25.433594 L 5.59375 -60.683594 Z M 0.105469 -60.472656 "/></g></g></g><g fill="#d500f9" fill-opacity="1"><g transform="translate(154.80663, 244.395307)"><g><path d="M 17.171875 -0.0703125 C 17.269531 -0.0234375 17.339844 0 17.390625 0 L 1.011719 -0.144531 C 3.65625 -0.960938 4.980469 -2.40625 4.980469 -4.472656 L 4.617188 -46.972656 C 4.425781 -48.65625 3.535156 -49.859375 1.949219 -50.578125 L 13.996094 -50.578125 C 13.902344 -50.53125 13.804688 -50.460938 13.710938 -50.363281 L 14.429688 -50.363281 C 20.492188 -48.101562 26.335938 -44.832031 31.964844 -40.550781 C 32.347656 -33.574219 32.542969 -27.007812 32.542969 -20.851562 C 32.542969 -19.167969 32.46875 -16.667969 32.324219 -13.347656 C 31.890625 -11.472656 29.847656 -8.921875 26.191406 -5.699219 C 24.171875 -3.921875 22.078125 -2.140625 19.914062 -0.359375 L 17.75 0 Z M 12.699219 -6.925781 C 12.746094 -6.78125 12.796875 -6.613281 12.84375 -6.421875 C 13.949219 -5.652344 15.585938 -4.929688 17.75 -4.257812 C 18.710938 -4.785156 19.746094 -5.53125 20.851562 -6.492188 C 22.152344 -7.648438 22.945312 -8.632812 23.234375 -9.453125 L 23.089844 -39.25 C 22.609375 -40.886719 21.285156 -42.304688 19.121094 -43.507812 C 17.917969 -44.085938 16.113281 -44.976562 13.710938 -46.179688 C 13.421875 -45.410156 13.203125 -44.207031 13.058594 -42.570312 C 12.914062 -40.933594 12.699219 -39.730469 12.410156 -38.960938 Z M 12.699219 -6.925781 "/></g></g></g><g fill="#d500f9" fill-opacity="1"><g transform="translate(189.942734, 244.395307)"><g><path d="M 12.410156 -44.519531 L 12.699219 -27.921875 L 18.398438 -25.324219 L 19.84375 -27.203125 L 18.976562 -46.898438 Z M 12.769531 -2.09375 L 18.398438 -3.679688 L 19.84375 -5.554688 L 19.046875 -21.355469 L 12.554688 -24.675781 Z M 28.355469 -16.8125 L 26.769531 -3.390625 L 18.976562 0.792969 L 18.761719 0.792969 L 1.082031 1.082031 C 3.726562 0.265625 5.050781 -1.179688 5.050781 -3.246094 L 4.691406 -39.25 C 4.496094 -40.933594 3.609375 -42.136719 2.019531 -42.859375 L 12.484375 -47.261719 L 12.625 -47.765625 L 20.273438 -50.652344 L 28.355469 -39.902344 L 26.769531 -25.039062 L 22.871094 -22.871094 Z M 28.355469 -16.8125 "/></g></g></g></svg>