<svg xmlns="http://www.w3.org/2000/svg" xmlns:xlink="http://www.w3.org/1999/xlink" width="500" zoomAndPan="magnify" viewBox="0 0 375 374.999991" height="500" preserveAspectRatio="xMidYMid meet" version="1.0"><defs><clipPath id="2e79997b6d"><path d="M 152.125 70.882812 L 222.625 70.882812 L 222.625 304 L 152.125 304 Z M 152.125 70.882812 " clip-rule="nonzero"/></clipPath></defs><g clip-path="url(#2e79997b6d)"><path fill="#d500f9" d="M 156.300781 154.164062 C 159.378906 157.964844 159.378906 157.964844 163.332031 156.335938 C 169.9375 153.613281 176.480469 150.71875 183.175781 148.246094 C 186.507812 147.015625 187.230469 144.5 188.136719 141.246094 C 177.324219 145.632812 166.9375 149.847656 156.300781 154.164062 Z M 193.742188 88.15625 C 193.542969 88.109375 193.34375 88.066406 193.144531 88.019531 C 188.582031 103.3125 184.019531 118.601562 179.296875 134.421875 C 181.203125 133.78125 182.503906 133.175781 183.871094 132.917969 C 186.265625 132.46875 186.960938 130.960938 187.28125 128.730469 C 188.308594 121.550781 189.519531 114.398438 190.667969 107.234375 C 191.6875 100.875 192.71875 94.515625 193.742188 88.15625 Z M 161.402344 232.992188 C 167.746094 230.796875 173.949219 228.683594 180.121094 226.472656 C 180.835938 226.214844 181.664062 225.542969 181.914062 224.867188 C 182.859375 222.316406 183.585938 219.691406 184.535156 216.644531 C 175.195312 220.414062 166.347656 223.984375 157.328125 227.625 C 158.609375 229.316406 159.914062 231.03125 161.402344 232.992188 Z M 178.480469 201.09375 C 181.898438 199.640625 184.699219 198.671875 187.261719 197.265625 C 188.605469 196.527344 190.023438 195.21875 190.578125 193.835938 C 198.382812 174.300781 206.035156 154.707031 213.746094 135.132812 C 215.460938 130.773438 215.039062 129.335938 211.214844 126.660156 C 200.425781 151.199219 189.617188 175.773438 178.480469 201.09375 Z M 217.152344 188.097656 C 198.25 226.089844 179.558594 263.644531 160.875 301.195312 C 164.820312 303.238281 165.515625 303.03125 167.277344 299.609375 C 174.636719 285.320312 182.011719 271.042969 189.382812 256.757812 C 199.644531 236.867188 209.917969 216.980469 220.121094 197.058594 C 220.570312 196.179688 220.761719 194.8125 220.40625 193.949219 C 219.621094 192.035156 218.410156 190.292969 217.152344 188.097656 Z M 197.945312 71.355469 C 195.59375 91.199219 191.613281 110.816406 188.789062 131.078125 C 194.851562 128.910156 200.484375 126.925781 206.09375 124.875 C 211.222656 123 211.214844 122.964844 214.617188 127.289062 C 215.679688 128.636719 216.726562 129.996094 217.433594 130.902344 C 208.957031 152.347656 200.617188 173.433594 191.992188 195.257812 C 198.15625 192.601562 203.550781 190.277344 208.945312 187.953125 C 210.785156 187.160156 212.726562 186.535156 214.4375 185.519531 C 216.492188 184.300781 217.609375 185.207031 218.578125 186.851562 C 219.792969 188.914062 221.175781 190.917969 222.058594 193.117188 C 222.542969 194.328125 222.640625 196.152344 222.070312 197.269531 C 211.585938 217.816406 200.972656 238.292969 190.394531 258.789062 C 183.152344 272.820312 175.878906 286.835938 168.730469 300.914062 C 167.601562 303.136719 166.4375 304.125 163.851562 303.429688 C 161.734375 302.863281 159.472656 302.855469 156.9375 302.558594 C 164.898438 277.5625 172.65625 253.191406 180.578125 228.320312 C 175.136719 230.199219 170.003906 231.820312 164.992188 233.757812 C 162.4375 234.746094 160.816406 234.386719 159.144531 232.128906 C 157.828125 230.351562 155.925781 228.976562 154.171875 227.570312 C 152.296875 226.070312 152.871094 224.335938 153.582031 222.675781 C 159.007812 210.007812 164.519531 197.378906 169.949219 184.714844 C 174.738281 173.546875 179.457031 162.34375 184.199219 151.15625 C 184.339844 150.824219 184.402344 150.457031 184.65625 149.570312 C 180.703125 151.175781 177.15625 152.648438 173.585938 154.058594 C 169.417969 155.699219 165.238281 157.308594 161.042969 158.878906 C 159.355469 159.507812 157.9375 159.082031 156.769531 157.617188 C 156 156.648438 155.015625 155.859375 154.152344 154.960938 C 152.53125 153.277344 152.136719 151.59375 153.402344 149.332031 C 166.417969 126.011719 179.351562 102.644531 192.277344 79.273438 C 193.339844 77.355469 194.132812 75.289062 195.109375 73.320312 C 195.53125 72.46875 196.105469 71.691406 196.613281 70.882812 C 197.054688 71.039062 197.5 71.199219 197.945312 71.355469 " fill-opacity="1" fill-rule="nonzero"/></g></svg>