<svg xmlns="http://www.w3.org/2000/svg" xmlns:xlink="http://www.w3.org/1999/xlink" width="500" zoomAndPan="magnify" viewBox="0 0 375 374.999991" height="500" preserveAspectRatio="xMidYMid meet" version="1.0"><defs><g/><clipPath id="f3fe13bc31"><path d="M 107.882812 124 L 137 124 L 137 175 L 107.882812 175 Z M 107.882812 124 " clip-rule="nonzero"/></clipPath><clipPath id="05985247e5"><path d="M 82.214844 124.898438 L 113.714844 124.898438 L 113.714844 229 L 82.214844 229 Z M 82.214844 124.898438 " clip-rule="nonzero"/></clipPath><clipPath id="7ff85fba63"><path d="M 132.328125 142.300781 L 145.894531 142.300781 L 145.894531 149.457031 L 132.328125 149.457031 Z M 132.328125 142.300781 " clip-rule="nonzero"/></clipPath></defs><g clip-path="url(#f3fe13bc31)"><path fill="#d500f9" d="M 111.472656 174.039062 C 125.121094 174.039062 136.265625 162.945312 136.265625 149.246094 C 136.265625 135.660156 125.121094 124.5625 111.472656 124.5625 C 97.828125 124.5625 86.734375 135.660156 86.734375 149.246094 C 86.734375 162.945312 97.773438 174.039062 111.472656 174.039062 Z M 111.472656 166.945312 C 101.710938 166.945312 93.835938 159.007812 93.835938 149.246094 C 93.835938 139.542969 101.710938 131.722656 111.472656 131.722656 C 121.125 131.722656 129.058594 139.597656 129.058594 149.246094 C 129.058594 159.007812 121.179688 166.945312 111.472656 166.945312 Z M 111.472656 166.945312 " fill-opacity="1" fill-rule="nonzero"/></g><g clip-path="url(#05985247e5)"><path fill="#d500f9" d="M 84.097656 162.121094 C 85.472656 163.820312 85.472656 163.816406 87.234375 163.089844 C 90.183594 161.875 93.101562 160.582031 96.089844 159.472656 C 97.578125 158.925781 97.898438 157.800781 98.304688 156.34375 C 93.480469 158.304688 88.84375 160.191406 84.097656 162.121094 Z M 100.804688 132.617188 C 100.714844 132.597656 100.628906 132.578125 100.539062 132.558594 C 98.503906 139.390625 96.464844 146.226562 94.359375 153.296875 C 95.210938 153.007812 95.792969 152.738281 96.398438 152.625 C 97.46875 152.421875 97.78125 151.746094 97.921875 150.753906 C 98.382812 147.542969 98.921875 144.34375 99.433594 141.144531 C 99.886719 138.300781 100.347656 135.457031 100.804688 132.617188 Z M 86.375 197.351562 C 89.207031 196.371094 91.972656 195.425781 94.726562 194.4375 C 95.046875 194.320312 95.417969 194.019531 95.527344 193.71875 C 95.949219 192.582031 96.273438 191.40625 96.695312 190.042969 C 92.53125 191.730469 88.582031 193.324219 84.554688 194.953125 C 85.128906 195.707031 85.710938 196.472656 86.375 197.351562 Z M 93.996094 183.09375 C 95.519531 182.445312 96.769531 182.011719 97.914062 181.382812 C 98.515625 181.050781 99.144531 180.46875 99.394531 179.847656 C 102.875 171.117188 106.289062 162.363281 109.730469 153.613281 C 110.496094 151.664062 110.308594 151.023438 108.601562 149.828125 C 103.789062 160.792969 98.964844 171.777344 93.996094 183.09375 Z M 111.253906 177.285156 C 102.816406 194.265625 94.476562 211.050781 86.136719 227.832031 C 87.898438 228.746094 88.210938 228.652344 88.996094 227.125 C 92.28125 220.738281 95.570312 214.355469 98.859375 207.972656 C 103.4375 199.082031 108.023438 190.195312 112.578125 181.289062 C 112.777344 180.898438 112.863281 180.289062 112.703125 179.902344 C 112.351562 179.042969 111.8125 178.265625 111.253906 177.285156 Z M 102.679688 125.109375 C 101.632812 133.976562 99.855469 142.746094 98.597656 151.800781 C 101.300781 150.832031 103.8125 149.945312 106.316406 149.027344 C 108.605469 148.191406 108.601562 148.175781 110.121094 150.105469 C 110.59375 150.710938 111.0625 151.316406 111.375 151.722656 C 107.59375 161.304688 103.875 170.730469 100.023438 180.484375 C 102.777344 179.296875 105.183594 178.261719 107.589844 177.222656 C 108.410156 176.867188 109.277344 176.585938 110.039062 176.132812 C 110.957031 175.585938 111.453125 175.996094 111.886719 176.730469 C 112.429688 177.648438 113.046875 178.546875 113.441406 179.527344 C 113.65625 180.070312 113.699219 180.886719 113.445312 181.382812 C 108.769531 190.566406 104.03125 199.71875 99.3125 208.878906 C 96.082031 215.152344 92.835938 221.417969 89.644531 227.707031 C 89.140625 228.703125 88.621094 229.144531 87.46875 228.832031 C 86.523438 228.578125 85.511719 228.574219 84.382812 228.441406 C 87.933594 217.273438 91.398438 206.378906 94.929688 195.261719 C 92.503906 196.101562 90.214844 196.828125 87.976562 197.695312 C 86.835938 198.132812 86.113281 197.972656 85.367188 196.964844 C 84.78125 196.171875 83.929688 195.554688 83.148438 194.929688 C 82.3125 194.257812 82.566406 193.480469 82.882812 192.742188 C 85.304688 187.078125 87.765625 181.433594 90.1875 175.773438 C 92.324219 170.78125 94.429688 165.777344 96.546875 160.773438 C 96.609375 160.625 96.636719 160.460938 96.75 160.066406 C 94.988281 160.78125 93.40625 161.441406 91.8125 162.070312 C 89.949219 162.804688 88.085938 163.523438 86.214844 164.226562 C 85.460938 164.507812 84.828125 164.316406 84.308594 163.660156 C 83.964844 163.230469 83.523438 162.875 83.140625 162.476562 C 82.417969 161.722656 82.242188 160.96875 82.804688 159.957031 C 88.613281 149.535156 94.382812 139.09375 100.152344 128.648438 C 100.625 127.789062 100.980469 126.867188 101.414062 125.988281 C 101.605469 125.605469 101.859375 125.257812 102.085938 124.898438 C 102.285156 124.96875 102.484375 125.039062 102.679688 125.109375 " fill-opacity="1" fill-rule="nonzero"/></g><g clip-path="url(#7ff85fba63)"><path fill="#d500f9" d="M 134.308594 149.457031 C 134.050781 149.457031 133.792969 149.402344 133.539062 149.296875 C 132.53125 148.867188 132.0625 147.710938 132.488281 146.703125 C 133.613281 144.023438 136.214844 142.300781 139.113281 142.300781 C 142.011719 142.300781 144.613281 144.023438 145.746094 146.703125 C 146.175781 147.710938 145.703125 148.878906 144.699219 149.296875 C 143.691406 149.726562 142.527344 149.253906 142.109375 148.246094 C 141.59375 147.046875 140.417969 146.265625 139.113281 146.265625 C 137.808594 146.265625 136.640625 147.046875 136.128906 148.246094 C 135.816406 148.996094 135.078125 149.457031 134.308594 149.457031 Z M 134.308594 149.457031 " fill-opacity="1" fill-rule="nonzero"/></g><g fill="#d500f9" fill-opacity="1"><g transform="translate(140.1965, 174.111097)"><g><path d="M 26.902344 -0.167969 C 40.523438 -0.167969 51.648438 -11.238281 51.648438 -24.910156 C 51.648438 -38.472656 40.523438 -49.546875 26.902344 -49.546875 C 13.285156 -49.546875 2.214844 -38.472656 2.214844 -24.910156 C 2.214844 -11.238281 13.230469 -0.167969 26.902344 -0.167969 Z M 26.902344 -7.25 C 17.160156 -7.25 9.300781 -15.167969 9.300781 -24.910156 C 9.300781 -34.597656 17.160156 -42.402344 26.902344 -42.402344 C 36.535156 -42.402344 44.453125 -34.542969 44.453125 -24.910156 C 44.453125 -15.167969 36.589844 -7.25 26.902344 -7.25 Z M 26.902344 -7.25 "/></g></g></g><g fill="#d500f9" fill-opacity="1"><g transform="translate(195.850731, 185.533649)"><g><path d="M 20.6875 -54.140625 L 14.777344 -54.140625 L 13.824219 -9.289062 C 13.683594 -9.007812 13.613281 -8.722656 13.613281 -8.441406 C 13.613281 -7.175781 15.304688 -5.101562 18.679688 -2.214844 L 10.027344 -5.382812 C 6.648438 -6.648438 4.855469 -8.160156 4.644531 -9.921875 L 5.171875 -54.5625 L -3.695312 -54.5625 C 2.355469 -57.941406 8.40625 -63.78125 14.457031 -72.082031 L 14.246094 -58.679688 L 19.734375 -58.679688 Z M 20.6875 -54.140625 "/></g></g></g><g fill="#d500f9" fill-opacity="1"><g transform="translate(217.168643, 185.533649)"><g><path d="M 20.6875 -54.140625 L 14.777344 -54.140625 L 13.824219 -9.289062 C 13.683594 -9.007812 13.613281 -8.722656 13.613281 -8.441406 C 13.613281 -7.175781 15.304688 -5.101562 18.679688 -2.214844 L 10.027344 -5.382812 C 6.648438 -6.648438 4.855469 -8.160156 4.644531 -9.921875 L 5.171875 -54.5625 L -3.695312 -54.5625 C 2.355469 -57.941406 8.40625 -63.78125 14.457031 -72.082031 L 14.246094 -58.679688 L 19.734375 -58.679688 Z M 20.6875 -54.140625 "/></g></g></g><g fill="#d500f9" fill-opacity="1"><g transform="translate(238.486555, 185.533649)"><g><path d="M 27.863281 -39.683594 L 25.222656 -34.195312 C 22.480469 -35.8125 19.347656 -36.621094 15.832031 -36.621094 C 13.71875 -36.621094 12.417969 -36.339844 11.925781 -35.777344 L 12.664062 -18.46875 C 13.226562 -17.273438 14.421875 -16.183594 16.253906 -15.199219 C 17.660156 -17.027344 18.609375 -19.3125 19.101562 -22.058594 C 19.171875 -22.339844 19.347656 -24.132812 19.628906 -27.441406 L 24.273438 -21.53125 L 17.835938 -12.347656 L 12.453125 -12.242188 L 1.792969 -21.53125 C 1.230469 -24.203125 0.949219 -27.265625 0.949219 -30.710938 C 0.949219 -35.636719 1.441406 -40.808594 2.425781 -46.226562 L 14.246094 -55.515625 C 15.09375 -55.796875 15.796875 -55.761719 16.359375 -55.410156 L 24.90625 -49.816406 Z M 20.261719 -39.050781 L 14.882812 -51.1875 C 14.386719 -51.820312 14.070312 -52.136719 13.929688 -52.136719 C 13.648438 -52.136719 13.367188 -51.890625 13.085938 -51.398438 L 11.820312 -39.367188 C 15.761719 -39.578125 18.574219 -39.472656 20.261719 -39.050781 Z M 20.261719 -39.050781 "/></g></g></g><g fill="#d500f9" fill-opacity="1"><g transform="translate(267.402918, 185.533649)"><g><path d="M 0.105469 -60.472656 C 3.695312 -62.9375 7.773438 -65.996094 12.347656 -69.65625 L 12.347656 -60.15625 C 16.007812 -63.324219 18.398438 -64.90625 19.523438 -64.90625 C 19.875 -64.90625 20.121094 -64.800781 20.261719 -64.589844 L 25.222656 -55.9375 C 25.785156 -55.304688 26.066406 -54.667969 26.066406 -54.035156 C 26.066406 -53.332031 25.714844 -52.875 25.011719 -52.664062 L 15.304688 -46.964844 L 15.304688 -47.386719 C 16.78125 -48.792969 17.625 -50.097656 17.835938 -51.292969 C 17.554688 -52.347656 17.0625 -53.648438 16.359375 -55.195312 C 15.445312 -57.167969 14.742188 -58.082031 14.246094 -57.941406 C 13.824219 -57.871094 13.296875 -57.414062 12.664062 -56.570312 C 12.382812 -46.085938 12.558594 -35.742188 13.191406 -25.539062 C 13.332031 -23.289062 14.421875 -21.917969 16.464844 -21.425781 C 15.480469 -21.425781 13.984375 -21.460938 11.980469 -21.53125 C 9.972656 -21.601562 8.476562 -21.636719 7.492188 -21.636719 C 6.859375 -21.636719 5.894531 -21.601562 4.589844 -21.53125 C 3.289062 -21.460938 2.320312 -21.425781 1.6875 -21.425781 C 3.519531 -22.199219 4.609375 -22.832031 4.960938 -23.324219 C 5.242188 -23.605469 5.382812 -24.308594 5.382812 -25.433594 L 5.59375 -60.683594 Z M 0.105469 -60.472656 "/></g></g></g><g fill="#d500f9" fill-opacity="1"><g transform="translate(154.80663, 241.15998)"><g><path d="M 17.171875 -0.0703125 C 17.269531 -0.0234375 17.339844 0 17.390625 0 L 1.011719 -0.144531 C 3.65625 -0.960938 4.980469 -2.40625 4.980469 -4.472656 L 4.617188 -46.972656 C 4.425781 -48.65625 3.535156 -49.859375 1.949219 -50.578125 L 13.996094 -50.578125 C 13.902344 -50.53125 13.804688 -50.460938 13.710938 -50.363281 L 14.429688 -50.363281 C 20.492188 -48.101562 26.335938 -44.832031 31.964844 -40.550781 C 32.347656 -33.574219 32.542969 -27.007812 32.542969 -20.851562 C 32.542969 -19.167969 32.46875 -16.667969 32.324219 -13.347656 C 31.890625 -11.472656 29.847656 -8.921875 26.191406 -5.699219 C 24.171875 -3.921875 22.078125 -2.140625 19.914062 -0.359375 L 17.75 0 Z M 12.699219 -6.925781 C 12.746094 -6.78125 12.796875 -6.613281 12.84375 -6.421875 C 13.949219 -5.652344 15.585938 -4.929688 17.75 -4.257812 C 18.710938 -4.785156 19.746094 -5.53125 20.851562 -6.492188 C 22.152344 -7.648438 22.945312 -8.632812 23.234375 -9.453125 L 23.089844 -39.25 C 22.609375 -40.886719 21.285156 -42.304688 19.121094 -43.507812 C 17.917969 -44.085938 16.113281 -44.976562 13.710938 -46.179688 C 13.421875 -45.410156 13.203125 -44.207031 13.058594 -42.570312 C 12.914062 -40.933594 12.699219 -39.730469 12.410156 -38.960938 Z M 12.699219 -6.925781 "/></g></g></g><g fill="#d500f9" fill-opacity="1"><g transform="translate(189.942734, 241.15998)"><g><path d="M 12.410156 -44.519531 L 12.699219 -27.921875 L 18.398438 -25.324219 L 19.84375 -27.203125 L 18.976562 -46.898438 Z M 12.769531 -2.09375 L 18.398438 -3.679688 L 19.84375 -5.554688 L 19.046875 -21.355469 L 12.554688 -24.675781 Z M 28.355469 -16.8125 L 26.769531 -3.390625 L 18.976562 0.792969 L 18.761719 0.792969 L 1.082031 1.082031 C 3.726562 0.265625 5.050781 -1.179688 5.050781 -3.246094 L 4.691406 -39.25 C 4.496094 -40.933594 3.609375 -42.136719 2.019531 -42.859375 L 12.484375 -47.261719 L 12.625 -47.765625 L 20.273438 -50.652344 L 28.355469 -39.902344 L 26.769531 -25.039062 L 22.871094 -22.871094 Z M 28.355469 -16.8125 "/></g></g></g></svg>