<?xml version="1.0" standalone="no"?>
<!DOCTYPE svg PUBLIC "-//W3C//DTD SVG 20010904//EN"
 "http://www.w3.org/TR/2001/REC-SVG-20010904/DTD/svg10.dtd">
<svg version="1.0" xmlns="http://www.w3.org/2000/svg"
 width="700.000000pt" height="700.000000pt" viewBox="0 0 700.000000 700.000000"
 preserveAspectRatio="xMidYMid meet">
<metadata>
Created by potrace 1.14, written by Peter Selinger 2001-2017
</metadata>
<g transform="translate(0.000000,700.000000) scale(0.100000,-0.100000)"
fill="#000000" stroke="none">
<path d="M3287 5126 c-433 -1019 -787 -1855 -787 -1857 0 -3 151 71 336 164
185 93 338 166 341 164 2 -3 -99 -367 -225 -809 -126 -441 -228 -804 -226
-806 1 -2 141 62 310 142 169 80 308 145 310 143 1 -1 -87 -504 -197 -1117
-109 -613 -198 -1123 -196 -1134 1 -10 358 815 794 1835 436 1019 791 1854
790 1855 -1 1 -157 -70 -347 -157 -190 -87 -350 -158 -356 -158 -6 -1 108 369
253 820 145 452 262 825 261 830 -2 4 -144 -55 -316 -133 -172 -77 -315 -138
-318 -136 -2 3 79 499 181 1103 102 604 183 1100 182 1102 -2 1 -358 -831
-790 -1851z"/>
</g>
</svg>
